<mxfile host="app.diagrams.net" agent="Mozilla/5.0 (Windows NT 10.0; Win64; x64) AppleWebKit/537.36 (KHTML, like Gecko) Chrome/116.0.5845.97 Safari/537.36 Core/1.116.475.400 QQBrowser/13.5.6267.400" version="26.2.13">
  <diagram name="第 1 页" id="RS5rnyXJE9rB96sxQPn0">
    <mxGraphModel dx="1516" dy="794" grid="1" gridSize="10" guides="1" tooltips="1" connect="1" arrows="1" fold="1" page="1" pageScale="1" pageWidth="1169" pageHeight="827" math="0" shadow="0">
      <root>
        <mxCell id="0" />
        <mxCell id="1" parent="0" />
        <mxCell id="i_Wn_gaaoWXB4JMmwm7U-7" style="rounded=0;orthogonalLoop=1;jettySize=auto;html=1;exitX=1;exitY=1;exitDx=0;exitDy=0;entryX=0.5;entryY=0;entryDx=0;entryDy=0;" edge="1" parent="1" source="i_Wn_gaaoWXB4JMmwm7U-10" target="i_Wn_gaaoWXB4JMmwm7U-6">
          <mxGeometry relative="1" as="geometry">
            <mxPoint x="845" y="100" as="sourcePoint" />
          </mxGeometry>
        </mxCell>
        <mxCell id="i_Wn_gaaoWXB4JMmwm7U-8" value="人口集中" style="edgeLabel;html=1;align=center;verticalAlign=middle;resizable=0;points=[];" vertex="1" connectable="0" parent="i_Wn_gaaoWXB4JMmwm7U-7">
          <mxGeometry x="-0.125" y="-3" relative="1" as="geometry">
            <mxPoint as="offset" />
          </mxGeometry>
        </mxCell>
        <mxCell id="i_Wn_gaaoWXB4JMmwm7U-3" value="打猎" style="whiteSpace=wrap;html=1;" vertex="1" parent="1">
          <mxGeometry x="740" y="140" width="70" height="30" as="geometry" />
        </mxCell>
        <mxCell id="i_Wn_gaaoWXB4JMmwm7U-4" value="" style="endArrow=classic;html=1;rounded=0;entryX=0.5;entryY=0;entryDx=0;entryDy=0;exitX=0;exitY=1;exitDx=0;exitDy=0;" edge="1" parent="1" source="i_Wn_gaaoWXB4JMmwm7U-10" target="i_Wn_gaaoWXB4JMmwm7U-3">
          <mxGeometry width="50" height="50" relative="1" as="geometry">
            <mxPoint x="845" y="100" as="sourcePoint" />
            <mxPoint x="920" y="270" as="targetPoint" />
          </mxGeometry>
        </mxCell>
        <mxCell id="i_Wn_gaaoWXB4JMmwm7U-5" value="人口分散" style="edgeLabel;html=1;align=center;verticalAlign=middle;resizable=0;points=[];" vertex="1" connectable="0" parent="i_Wn_gaaoWXB4JMmwm7U-4">
          <mxGeometry x="-0.0997" y="2" relative="1" as="geometry">
            <mxPoint as="offset" />
          </mxGeometry>
        </mxCell>
        <mxCell id="i_Wn_gaaoWXB4JMmwm7U-6" value="建造农场" style="whiteSpace=wrap;html=1;" vertex="1" parent="1">
          <mxGeometry x="870" y="140" width="70" height="30" as="geometry" />
        </mxCell>
        <mxCell id="i_Wn_gaaoWXB4JMmwm7U-9" value="走过去生产运输" style="whiteSpace=wrap;html=1;" vertex="1" parent="1">
          <mxGeometry x="450" y="140" width="70" height="30" as="geometry" />
        </mxCell>
        <mxCell id="i_Wn_gaaoWXB4JMmwm7U-10" value="喂饭" style="ellipse;whiteSpace=wrap;html=1;" vertex="1" parent="1">
          <mxGeometry x="810" y="70" width="70" height="30" as="geometry" />
        </mxCell>
        <mxCell id="i_Wn_gaaoWXB4JMmwm7U-13" style="rounded=0;orthogonalLoop=1;jettySize=auto;html=1;exitX=0;exitY=1;exitDx=0;exitDy=0;entryX=0.5;entryY=0;entryDx=0;entryDy=0;" edge="1" parent="1" source="i_Wn_gaaoWXB4JMmwm7U-11" target="i_Wn_gaaoWXB4JMmwm7U-18">
          <mxGeometry relative="1" as="geometry" />
        </mxCell>
        <mxCell id="i_Wn_gaaoWXB4JMmwm7U-14" value="已探出" style="edgeLabel;html=1;align=center;verticalAlign=middle;resizable=0;points=[];fontFamily=Helvetica;fontSize=11;fontColor=default;labelBackgroundColor=default;" vertex="1" connectable="0" parent="i_Wn_gaaoWXB4JMmwm7U-13">
          <mxGeometry x="-0.3002" y="2" relative="1" as="geometry">
            <mxPoint as="offset" />
          </mxGeometry>
        </mxCell>
        <mxCell id="i_Wn_gaaoWXB4JMmwm7U-16" style="edgeStyle=none;shape=connector;rounded=0;orthogonalLoop=1;jettySize=auto;html=1;exitX=1;exitY=1;exitDx=0;exitDy=0;entryX=0.5;entryY=0;entryDx=0;entryDy=0;strokeColor=default;align=center;verticalAlign=middle;fontFamily=Helvetica;fontSize=11;fontColor=default;labelBackgroundColor=default;endArrow=classic;" edge="1" parent="1" source="i_Wn_gaaoWXB4JMmwm7U-11" target="i_Wn_gaaoWXB4JMmwm7U-15">
          <mxGeometry relative="1" as="geometry" />
        </mxCell>
        <mxCell id="i_Wn_gaaoWXB4JMmwm7U-17" value="未探出" style="edgeLabel;html=1;align=center;verticalAlign=middle;resizable=0;points=[];fontFamily=Helvetica;fontSize=11;fontColor=default;labelBackgroundColor=default;" vertex="1" connectable="0" parent="i_Wn_gaaoWXB4JMmwm7U-16">
          <mxGeometry x="-0.2863" y="1" relative="1" as="geometry">
            <mxPoint as="offset" />
          </mxGeometry>
        </mxCell>
        <mxCell id="i_Wn_gaaoWXB4JMmwm7U-11" value="获取资源" style="ellipse;whiteSpace=wrap;html=1;" vertex="1" parent="1">
          <mxGeometry x="600" y="70" width="70" height="30" as="geometry" />
        </mxCell>
        <mxCell id="i_Wn_gaaoWXB4JMmwm7U-15" value="&lt;div&gt;探索行动&lt;/div&gt;幸运收获" style="whiteSpace=wrap;html=1;" vertex="1" parent="1">
          <mxGeometry x="650" y="140" width="70" height="30" as="geometry" />
        </mxCell>
        <mxCell id="i_Wn_gaaoWXB4JMmwm7U-19" style="edgeStyle=none;shape=connector;rounded=0;orthogonalLoop=1;jettySize=auto;html=1;exitX=0;exitY=0.5;exitDx=0;exitDy=0;entryX=1;entryY=0.5;entryDx=0;entryDy=0;strokeColor=default;align=center;verticalAlign=middle;fontFamily=Helvetica;fontSize=11;fontColor=default;labelBackgroundColor=default;endArrow=classic;" edge="1" parent="1" source="i_Wn_gaaoWXB4JMmwm7U-18" target="i_Wn_gaaoWXB4JMmwm7U-9">
          <mxGeometry relative="1" as="geometry" />
        </mxCell>
        <mxCell id="i_Wn_gaaoWXB4JMmwm7U-20" value="N" style="edgeLabel;html=1;align=center;verticalAlign=middle;resizable=0;points=[];fontFamily=Helvetica;fontSize=11;fontColor=default;labelBackgroundColor=default;" vertex="1" connectable="0" parent="i_Wn_gaaoWXB4JMmwm7U-19">
          <mxGeometry x="-0.2229" y="3" relative="1" as="geometry">
            <mxPoint x="-1" y="-3" as="offset" />
          </mxGeometry>
        </mxCell>
        <mxCell id="i_Wn_gaaoWXB4JMmwm7U-24" style="edgeStyle=none;shape=connector;rounded=0;orthogonalLoop=1;jettySize=auto;html=1;exitX=0.5;exitY=1;exitDx=0;exitDy=0;entryX=0.5;entryY=0;entryDx=0;entryDy=0;strokeColor=default;align=center;verticalAlign=middle;fontFamily=Helvetica;fontSize=11;fontColor=default;labelBackgroundColor=default;endArrow=classic;" edge="1" parent="1" source="i_Wn_gaaoWXB4JMmwm7U-18" target="i_Wn_gaaoWXB4JMmwm7U-22">
          <mxGeometry relative="1" as="geometry" />
        </mxCell>
        <mxCell id="i_Wn_gaaoWXB4JMmwm7U-25" value="Y" style="edgeLabel;html=1;align=center;verticalAlign=middle;resizable=0;points=[];fontFamily=Helvetica;fontSize=11;fontColor=default;labelBackgroundColor=default;" vertex="1" connectable="0" parent="i_Wn_gaaoWXB4JMmwm7U-24">
          <mxGeometry x="-0.32" relative="1" as="geometry">
            <mxPoint as="offset" />
          </mxGeometry>
        </mxCell>
        <mxCell id="i_Wn_gaaoWXB4JMmwm7U-18" value="远吗" style="rhombus;whiteSpace=wrap;html=1;fontFamily=Helvetica;fontSize=11;fontColor=default;labelBackgroundColor=default;" vertex="1" parent="1">
          <mxGeometry x="555" y="140" width="70" height="30" as="geometry" />
        </mxCell>
        <mxCell id="i_Wn_gaaoWXB4JMmwm7U-22" value="贸易购买" style="whiteSpace=wrap;html=1;" vertex="1" parent="1">
          <mxGeometry x="555" y="200" width="70" height="30" as="geometry" />
        </mxCell>
        <mxCell id="i_Wn_gaaoWXB4JMmwm7U-23" style="edgeStyle=none;shape=connector;rounded=0;orthogonalLoop=1;jettySize=auto;html=1;entryX=0.5;entryY=0;entryDx=0;entryDy=0;strokeColor=default;align=center;verticalAlign=middle;fontFamily=Helvetica;fontSize=11;fontColor=default;labelBackgroundColor=default;endArrow=classic;" edge="1" parent="1" source="i_Wn_gaaoWXB4JMmwm7U-22" target="i_Wn_gaaoWXB4JMmwm7U-22">
          <mxGeometry relative="1" as="geometry" />
        </mxCell>
      </root>
    </mxGraphModel>
  </diagram>
</mxfile>
